<?xml version="1.0" encoding="UTF-8"?>
<svg xmlns="http://www.w3.org/2000/svg"
     xmlns:xlink="http://www.w3.org/1999/xlink"
     xmlns:gadfly="http://www.gadflyjl.org/ns"
     version="1.2"
     width="141.42mm" height="100mm" viewBox="0 0 141.42 100"
     stroke="none"
     fill="#000000"
     stroke-width="0.3"
     font-size="3.88"
>
<defs>
  <marker id="arrow" markerWidth="15" markerHeight="7" refX="5" refY="3.5" orient="auto" markerUnits="strokeWidth">
    <path d="M0,0 L15,3.5 L0,7 z" stroke="context-stroke" fill="context-stroke"/>
  </marker>
</defs>
<g class="plotroot xscalable yscalable" id="img-cf1389fa-1">
  <g font-size="3.88" font-family="'PT Sans','Helvetica Neue','Helvetica',sans-serif" fill="#564A55" stroke="#000000" stroke-opacity="0.000" id="img-cf1389fa-2">
    <g transform="translate(74.56,88.39)">
      <g class="primitive">
        <text text-anchor="middle" dy="0.6em">Parametric bootstrap estimates of β₀</text>
      </g>
    </g>
  </g>
  <g class="guide xlabels" font-size="2.82" font-family="'PT Sans Caption','Helvetica Neue','Helvetica',sans-serif" fill="#6C606B" id="img-cf1389fa-3">
    <g transform="translate(14.69,81.72)">
      <g class="primitive">
        <text text-anchor="middle" dy="0.6em">210</text>
      </g>
    </g>
    <g transform="translate(29.66,81.72)">
      <g class="primitive">
        <text text-anchor="middle" dy="0.6em">220</text>
      </g>
    </g>
    <g transform="translate(44.63,81.72)">
      <g class="primitive">
        <text text-anchor="middle" dy="0.6em">230</text>
      </g>
    </g>
    <g transform="translate(59.59,81.72)">
      <g class="primitive">
        <text text-anchor="middle" dy="0.6em">240</text>
      </g>
    </g>
    <g transform="translate(74.56,81.72)">
      <g class="primitive">
        <text text-anchor="middle" dy="0.6em">250</text>
      </g>
    </g>
    <g transform="translate(89.52,81.72)">
      <g class="primitive">
        <text text-anchor="middle" dy="0.6em">260</text>
      </g>
    </g>
    <g transform="translate(104.49,81.72)">
      <g class="primitive">
        <text text-anchor="middle" dy="0.6em">270</text>
      </g>
    </g>
    <g transform="translate(119.46,81.72)">
      <g class="primitive">
        <text text-anchor="middle" dy="0.6em">280</text>
      </g>
    </g>
    <g transform="translate(134.42,81.72)">
      <g class="primitive">
        <text text-anchor="middle" dy="0.6em">290</text>
      </g>
    </g>
  </g>
  <g clip-path="url(#img-cf1389fa-4)">
    <g id="img-cf1389fa-5">
      <g pointer-events="visible" stroke-width="0.3" fill="#000000" fill-opacity="0.000" stroke="#000000" stroke-opacity="0.000" class="guide background" id="img-cf1389fa-6">
        <g transform="translate(74.56,42.86)" id="img-cf1389fa-7">
          <path d="M-61.86,-37.86 L 61.86 -37.86 61.86 37.86 -61.86 37.86 z" class="primitive"/>
        </g>
      </g>
      <g class="guide ygridlines xfixed" stroke-dasharray="0.5,0.5" stroke-width="0.2" stroke="#D0D0E0" id="img-cf1389fa-8">
        <g transform="translate(74.56,78.72)" id="img-cf1389fa-9">
          <path fill="none" d="M-61.86,0 L 61.86 0" class="primitive"/>
        </g>
        <g transform="translate(74.56,60.79)" id="img-cf1389fa-10">
          <path fill="none" d="M-61.86,0 L 61.86 0" class="primitive"/>
        </g>
        <g transform="translate(74.56,42.86)" id="img-cf1389fa-11">
          <path fill="none" d="M-61.86,0 L 61.86 0" class="primitive"/>
        </g>
        <g transform="translate(74.56,24.93)" id="img-cf1389fa-12">
          <path fill="none" d="M-61.86,0 L 61.86 0" class="primitive"/>
        </g>
        <g transform="translate(74.56,7)" id="img-cf1389fa-13">
          <path fill="none" d="M-61.86,0 L 61.86 0" class="primitive"/>
        </g>
      </g>
      <g class="guide xgridlines yfixed" stroke-dasharray="0.5,0.5" stroke-width="0.2" stroke="#D0D0E0" id="img-cf1389fa-14">
        <g transform="translate(14.69,42.86)" id="img-cf1389fa-15">
          <path fill="none" d="M0,-37.86 L 0 37.86" class="primitive"/>
        </g>
        <g transform="translate(29.66,42.86)" id="img-cf1389fa-16">
          <path fill="none" d="M0,-37.86 L 0 37.86" class="primitive"/>
        </g>
        <g transform="translate(44.63,42.86)" id="img-cf1389fa-17">
          <path fill="none" d="M0,-37.86 L 0 37.86" class="primitive"/>
        </g>
        <g transform="translate(59.59,42.86)" id="img-cf1389fa-18">
          <path fill="none" d="M0,-37.86 L 0 37.86" class="primitive"/>
        </g>
        <g transform="translate(74.56,42.86)" id="img-cf1389fa-19">
          <path fill="none" d="M0,-37.86 L 0 37.86" class="primitive"/>
        </g>
        <g transform="translate(89.52,42.86)" id="img-cf1389fa-20">
          <path fill="none" d="M0,-37.86 L 0 37.86" class="primitive"/>
        </g>
        <g transform="translate(104.49,42.86)" id="img-cf1389fa-21">
          <path fill="none" d="M0,-37.86 L 0 37.86" class="primitive"/>
        </g>
        <g transform="translate(119.46,42.86)" id="img-cf1389fa-22">
          <path fill="none" d="M0,-37.86 L 0 37.86" class="primitive"/>
        </g>
        <g transform="translate(134.42,42.86)" id="img-cf1389fa-23">
          <path fill="none" d="M0,-37.86 L 0 37.86" class="primitive"/>
        </g>
      </g>
      <g class="plotpanel" id="img-cf1389fa-24">
        <metadata>
          <boundingbox value="12.693333333333328mm 5.0mm 123.72802290397618mm 75.715mm"/>
          <unitbox value="208.66363783415747 0.08223105347556299 82.67272433168503 -0.08446210695112599"/>
        </metadata>
        <g stroke-width="0.3" fill="#000000" fill-opacity="0.000" class="geometry" id="img-cf1389fa-25">
          <g class="color_LCHab{Float32}(70.0f0,60.0f0,240.0f0)" stroke-dasharray="none" stroke="#00BFFF" id="img-cf1389fa-26">
            <g transform="translate(74,64.65)" id="img-cf1389fa-27">
              <path fill="none" d="M-47.5,14.07 L -47.13 14.07 -46.76 14.07 -46.38 14.07 -46.01 14.07 -45.64 14.07 -45.27 14.06 -44.89 14.06 -44.52 14.06 -44.15 14.06 -43.78 14.05 -43.4 14.05 -43.03 14.04 -42.66 14.03 -42.29 14.03 -41.91 14.03 -41.54 14.03 -41.17 14.03 -40.8 14.04 -40.42 14.04 -40.05 14.05 -39.68 14.05 -39.31 14.05 -38.93 14.05 -38.56 14.05 -38.19 14.05 -37.82 14.04 -37.44 14.04 -37.07 14.03 -36.7 14.03 -36.33 14.03 -35.95 14.03 -35.58 14.03 -35.21 14.04 -34.83 14.04 -34.46 14.04 -34.09 14.04 -33.72 14.03 -33.34 14.02 -32.97 14.01 -32.6 13.99 -32.23 13.97 -31.85 13.94 -31.48 13.91 -31.11 13.88 -30.74 13.85 -30.36 13.81 -29.99 13.77 -29.62 13.73 -29.25 13.68 -28.87 13.63 -28.5 13.57 -28.13 13.51 -27.76 13.45 -27.38 13.39 -27.01 13.31 -26.64 13.24 -26.27 13.15 -25.89 13.04 -25.52 12.92 -25.15 12.79 -24.78 12.65 -24.4 12.49 -24.03 12.34 -23.66 12.18 -23.29 12.03 -22.91 11.89 -22.54 11.74 -22.17 11.58 -21.8 11.4 -21.42 11.2 -21.05 10.95 -20.68 10.68 -20.3 10.37 -19.93 10.03 -19.56 9.69 -19.19 9.34 -18.81 8.99 -18.44 8.63 -18.07 8.26 -17.7 7.85 -17.32 7.38 -16.95 6.84 -16.58 6.23 -16.21 5.54 -15.83 4.8 -15.46 4.01 -15.09 3.2 -14.72 2.37 -14.34 1.53 -13.97 0.67 -13.6 -0.21 -13.23 -1.13 -12.85 -2.07 -12.48 -3.06 -12.11 -4.09 -11.74 -5.14 -11.36 -6.21 -10.99 -7.29 -10.62 -8.38 -10.25 -9.48 -9.87 -10.6 -9.5 -11.74 -9.13 -12.9 -8.76 -14.09 -8.38 -15.29 -8.01 -16.5 -7.64 -17.7 -7.27 -18.87 -6.89 -20.01 -6.52 -21.1 -6.15 -22.13 -5.77 -23.1 -5.4 -24.01 -5.03 -24.88 -4.66 -25.71 -4.28 -26.54 -3.91 -27.39 -3.54 -28.28 -3.17 -29.23 -2.79 -30.24 -2.42 -31.3 -2.05 -32.4 -1.68 -33.48 -1.3 -34.51 -0.93 -35.45 -0.56 -36.27 -0.19 -36.96 0.19 -37.52 0.56 -37.99 0.93 -38.39 1.3 -38.74 1.68 -39.07 2.05 -39.38 2.42 -39.67 2.79 -39.93 3.17 -40.12 3.54 -40.21 3.91 -40.19 4.28 -40.03 4.66 -39.71 5.03 -39.21 5.4 -38.55 5.77 -37.73 6.15 -36.8 6.52 -35.8 6.89 -34.79 7.27 -33.81 7.64 -32.88 8.01 -32.03 8.38 -31.23 8.76 -30.44 9.13 -29.62 9.5 -28.72 9.87 -27.7 10.25 -26.55 10.62 -25.27 10.99 -23.88 11.36 -22.44 11.74 -21 12.11 -19.61 12.48 -18.31 12.85 -17.11 13.23 -16 13.6 -14.96 13.97 -13.95 14.34 -12.94 14.72 -11.92 15.09 -10.87 15.46 -9.8 15.83 -8.72 16.21 -7.64 16.58 -6.55 16.95 -5.47 17.32 -4.41 17.7 -3.39 18.07 -2.41 18.44 -1.49 18.81 -0.63 19.19 0.18 19.56 0.92 19.93 1.62 20.3 2.29 20.68 2.93 21.05 3.57 21.42 4.2 21.8 4.84 22.17 5.49 22.54 6.15 22.91 6.8 23.29 7.43 23.66 8.02 24.03 8.56 24.4 9.03 24.78 9.42 25.15 9.74 25.52 10.01 25.89 10.24 26.27 10.44 26.64 10.65 27.01 10.87 27.38 11.11 27.76 11.38 28.13 11.66 28.5 11.93 28.87 12.19 29.25 12.43 29.62 12.63 29.99 12.8 30.36 12.93 30.74 13.03 31.11 13.12 31.48 13.2 31.85 13.26 32.23 13.33 32.6 13.39 32.97 13.45 33.34 13.52 33.72 13.58 34.09 13.64 34.46 13.71 34.83 13.77 35.21 13.83 35.58 13.88 35.95 13.93 36.33 13.97 36.7 14 37.07 14.02 37.44 14.03 37.82 14.04 38.19 14.04 38.56 14.04 38.93 14.03 39.31 14.02 39.68 14.02 40.05 14.01 40.42 14.01 40.8 14 41.17 14 41.54 14.01 41.91 14.01 42.29 14.02 42.66 14.03 43.03 14.04 43.4 14.04 43.78 14.05 44.15 14.06 44.52 14.06 44.89 14.06 45.27 14.06 45.64 14.07 46.01 14.07 46.38 14.07 46.76 14.07 47.13 14.07 47.5 14.07" class="primitive"/>
            </g>
          </g>
        </g>
      </g>
    </g>
  </g>
  <g class="guide ylabels" font-size="2.82" font-family="'PT Sans Caption','Helvetica Neue','Helvetica',sans-serif" fill="#6C606B" id="img-cf1389fa-28">
    <g transform="translate(11.69,78.72)" id="img-cf1389fa-29">
      <g class="primitive">
        <text text-anchor="end" dy="0.35em">0.00</text>
      </g>
    </g>
    <g transform="translate(11.69,60.79)" id="img-cf1389fa-30">
      <g class="primitive">
        <text text-anchor="end" dy="0.35em">0.02</text>
      </g>
    </g>
    <g transform="translate(11.69,42.86)" id="img-cf1389fa-31">
      <g class="primitive">
        <text text-anchor="end" dy="0.35em">0.04</text>
      </g>
    </g>
    <g transform="translate(11.69,24.93)" id="img-cf1389fa-32">
      <g class="primitive">
        <text text-anchor="end" dy="0.35em">0.06</text>
      </g>
    </g>
    <g transform="translate(11.69,7)" id="img-cf1389fa-33">
      <g class="primitive">
        <text text-anchor="end" dy="0.35em">0.08</text>
      </g>
    </g>
  </g>
</g>
<defs>
  <clipPath id="img-cf1389fa-4">
    <path d="M12.69,5 L 136.42 5 136.42 80.72 12.69 80.72" />
  </clipPath>
</defs>
</svg>
