<?xml version="1.0" encoding="UTF-8"?>
<svg xmlns="http://www.w3.org/2000/svg"
     xmlns:xlink="http://www.w3.org/1999/xlink"
     xmlns:gadfly="http://www.gadflyjl.org/ns"
     version="1.2"
     width="141.42mm" height="100mm" viewBox="0 0 141.42 100"
     stroke="none"
     fill="#000000"
     stroke-width="0.3"
     font-size="3.88"
>
<defs>
  <marker id="arrow" markerWidth="15" markerHeight="7" refX="5" refY="3.5" orient="auto" markerUnits="strokeWidth">
    <path d="M0,0 L15,3.5 L0,7 z" stroke="context-stroke" fill="context-stroke"/>
  </marker>
</defs>
<g class="plotroot xscalable yscalable" id="img-32f36571-1">
  <g font-size="3.88" font-family="'PT Sans','Helvetica Neue','Helvetica',sans-serif" fill="#564A55" stroke="#000000" stroke-opacity="0.000" id="img-32f36571-2">
    <g transform="translate(73.72,88.39)">
      <g class="primitive">
        <text text-anchor="middle" dy="0.6em">Parametric bootstrap estimates of β₁</text>
      </g>
    </g>
  </g>
  <g class="guide xlabels" font-size="2.82" font-family="'PT Sans Caption','Helvetica Neue','Helvetica',sans-serif" fill="#6C606B" id="img-32f36571-3">
    <g transform="translate(13.02,81.72)">
      <g class="primitive">
        <text text-anchor="middle" dy="0.6em">0</text>
      </g>
    </g>
    <g transform="translate(43.37,81.72)">
      <g class="primitive">
        <text text-anchor="middle" dy="0.6em">5</text>
      </g>
    </g>
    <g transform="translate(73.72,81.72)">
      <g class="primitive">
        <text text-anchor="middle" dy="0.6em">10</text>
      </g>
    </g>
    <g transform="translate(104.07,81.72)">
      <g class="primitive">
        <text text-anchor="middle" dy="0.6em">15</text>
      </g>
    </g>
    <g transform="translate(134.42,81.72)">
      <g class="primitive">
        <text text-anchor="middle" dy="0.6em">20</text>
      </g>
    </g>
  </g>
  <g clip-path="url(#img-32f36571-4)">
    <g id="img-32f36571-5">
      <g pointer-events="visible" stroke-width="0.3" fill="#000000" fill-opacity="0.000" stroke="#000000" stroke-opacity="0.000" class="guide background" id="img-32f36571-6">
        <g transform="translate(73.72,42.86)" id="img-32f36571-7">
          <path d="M-62.7,-37.86 L 62.7 -37.86 62.7 37.86 -62.7 37.86 z" class="primitive"/>
        </g>
      </g>
      <g class="guide ygridlines xfixed" stroke-dasharray="0.5,0.5" stroke-width="0.2" stroke="#D0D0E0" id="img-32f36571-8">
        <g transform="translate(73.72,78.71)" id="img-32f36571-9">
          <path fill="none" d="M-62.7,0 L 62.7 0" class="primitive"/>
        </g>
        <g transform="translate(73.72,54.81)" id="img-32f36571-10">
          <path fill="none" d="M-62.7,0 L 62.7 0" class="primitive"/>
        </g>
        <g transform="translate(73.72,30.9)" id="img-32f36571-11">
          <path fill="none" d="M-62.7,0 L 62.7 0" class="primitive"/>
        </g>
        <g transform="translate(73.72,7)" id="img-32f36571-12">
          <path fill="none" d="M-62.7,0 L 62.7 0" class="primitive"/>
        </g>
      </g>
      <g class="guide xgridlines yfixed" stroke-dasharray="0.5,0.5" stroke-width="0.2" stroke="#D0D0E0" id="img-32f36571-13">
        <g transform="translate(13.02,42.86)" id="img-32f36571-14">
          <path fill="none" d="M0,-37.86 L 0 37.86" class="primitive"/>
        </g>
        <g transform="translate(43.37,42.86)" id="img-32f36571-15">
          <path fill="none" d="M0,-37.86 L 0 37.86" class="primitive"/>
        </g>
        <g transform="translate(73.72,42.86)" id="img-32f36571-16">
          <path fill="none" d="M0,-37.86 L 0 37.86" class="primitive"/>
        </g>
        <g transform="translate(104.07,42.86)" id="img-32f36571-17">
          <path fill="none" d="M0,-37.86 L 0 37.86" class="primitive"/>
        </g>
        <g transform="translate(134.42,42.86)" id="img-32f36571-18">
          <path fill="none" d="M0,-37.86 L 0 37.86" class="primitive"/>
        </g>
      </g>
      <g class="plotpanel" id="img-32f36571-19">
        <metadata>
          <boundingbox value="11.019999999999996mm 5.0mm 125.40135623730951mm 75.715mm"/>
          <unitbox value="-0.32948561070281557 0.30836645053336126 20.65897122140563 -0.3167329010667225"/>
        </metadata>
        <g stroke-width="0.3" fill="#000000" fill-opacity="0.000" class="geometry" id="img-32f36571-20">
          <g class="color_LCHab{Float32}(70.0f0,60.0f0,240.0f0)" stroke-dasharray="none" stroke="#00BFFF" id="img-32f36571-21">
            <g transform="translate(77.69,60.84)" id="img-32f36571-22">
              <path fill="none" d="M-40.43,17.88 L -40.11 17.88 -39.8 17.88 -39.48 17.88 -39.16 17.87 -38.84 17.87 -38.53 17.87 -38.21 17.87 -37.89 17.87 -37.58 17.87 -37.26 17.86 -36.94 17.86 -36.62 17.85 -36.31 17.84 -35.99 17.84 -35.67 17.83 -35.36 17.83 -35.04 17.83 -34.72 17.83 -34.4 17.83 -34.09 17.83 -33.77 17.82 -33.45 17.81 -33.14 17.8 -32.82 17.77 -32.5 17.74 -32.18 17.69 -31.87 17.65 -31.55 17.6 -31.23 17.56 -30.92 17.52 -30.6 17.48 -30.28 17.44 -29.97 17.4 -29.65 17.36 -29.33 17.3 -29.01 17.24 -28.7 17.16 -28.38 17.07 -28.06 16.95 -27.75 16.81 -27.43 16.65 -27.11 16.48 -26.79 16.3 -26.48 16.11 -26.16 15.92 -25.84 15.75 -25.53 15.59 -25.21 15.43 -24.89 15.28 -24.57 15.12 -24.26 14.94 -23.94 14.74 -23.62 14.5 -23.31 14.23 -22.99 13.94 -22.67 13.63 -22.36 13.3 -22.04 12.96 -21.72 12.61 -21.4 12.23 -21.09 11.81 -20.77 11.35 -20.45 10.84 -20.14 10.28 -19.82 9.68 -19.5 9.04 -19.18 8.37 -18.87 7.69 -18.55 6.98 -18.23 6.23 -17.92 5.45 -17.6 4.62 -17.28 3.75 -16.96 2.82 -16.65 1.87 -16.33 0.9 -16.01 -0.08 -15.7 -1.04 -15.38 -2 -15.06 -2.95 -14.74 -3.91 -14.43 -4.88 -14.11 -5.88 -13.79 -6.93 -13.48 -8.03 -13.16 -9.18 -12.84 -10.37 -12.53 -11.61 -12.21 -12.89 -11.89 -14.18 -11.57 -15.48 -11.26 -16.79 -10.94 -18.09 -10.62 -19.38 -10.31 -20.66 -9.99 -21.92 -9.67 -23.16 -9.35 -24.38 -9.04 -25.57 -8.72 -26.74 -8.4 -27.89 -8.09 -29 -7.77 -30.11 -7.45 -31.22 -7.13 -32.35 -6.82 -33.51 -6.5 -34.69 -6.18 -35.87 -5.87 -37.03 -5.55 -38.13 -5.23 -39.15 -4.91 -40.06 -4.6 -40.85 -4.28 -41.53 -3.96 -42.11 -3.65 -42.61 -3.33 -43.05 -3.01 -43.44 -2.7 -43.79 -2.38 -44.13 -2.06 -44.45 -1.74 -44.75 -1.43 -45.01 -1.11 -45.22 -0.79 -45.34 -0.48 -45.36 -0.16 -45.24 0.16 -44.98 0.48 -44.58 0.79 -44.02 1.11 -43.31 1.43 -42.47 1.74 -41.52 2.06 -40.46 2.38 -39.34 2.7 -38.19 3.01 -37.05 3.33 -35.95 3.65 -34.93 3.96 -33.99 4.28 -33.14 4.6 -32.35 4.91 -31.6 5.23 -30.87 5.55 -30.13 5.87 -29.37 6.18 -28.59 6.5 -27.76 6.82 -26.88 7.13 -25.92 7.45 -24.87 7.77 -23.7 8.09 -22.41 8.4 -21 8.72 -19.46 9.04 -17.83 9.35 -16.13 9.67 -14.39 9.99 -12.63 10.31 -10.89 10.62 -9.21 10.94 -7.6 11.26 -6.09 11.57 -4.7 11.89 -3.44 12.21 -2.31 12.53 -1.31 12.84 -0.42 13.16 0.36 13.48 1.08 13.79 1.74 14.11 2.39 14.43 3.04 14.74 3.73 15.06 4.45 15.38 5.21 15.7 6.01 16.01 6.83 16.33 7.65 16.65 8.45 16.96 9.22 17.28 9.93 17.6 10.57 17.92 11.15 18.23 11.65 18.55 12.08 18.87 12.45 19.18 12.78 19.5 13.07 19.82 13.35 20.14 13.62 20.45 13.89 20.77 14.16 21.09 14.44 21.4 14.72 21.72 14.99 22.04 15.25 22.36 15.5 22.67 15.74 22.99 15.94 23.31 16.12 23.62 16.26 23.94 16.38 24.26 16.47 24.57 16.54 24.89 16.6 25.21 16.65 25.53 16.71 25.84 16.78 26.16 16.86 26.48 16.94 26.79 17.02 27.11 17.1 27.43 17.17 27.75 17.24 28.06 17.3 28.38 17.36 28.7 17.41 29.01 17.46 29.33 17.51 29.65 17.57 29.97 17.61 30.28 17.66 30.6 17.7 30.92 17.73 31.23 17.75 31.55 17.77 31.87 17.77 32.18 17.78 32.5 17.77 32.82 17.77 33.14 17.77 33.45 17.77 33.77 17.77 34.09 17.78 34.4 17.79 34.72 17.79 35.04 17.8 35.36 17.81 35.67 17.82 35.99 17.83 36.31 17.84 36.62 17.85 36.94 17.86 37.26 17.86 37.58 17.87 37.89 17.87 38.21 17.87 38.53 17.87 38.84 17.87 39.16 17.87 39.48 17.88 39.8 17.88 40.11 17.88 40.43 17.88" class="primitive"/>
            </g>
          </g>
        </g>
      </g>
    </g>
  </g>
  <g class="guide ylabels" font-size="2.82" font-family="'PT Sans Caption','Helvetica Neue','Helvetica',sans-serif" fill="#6C606B" id="img-32f36571-23">
    <g transform="translate(10.02,78.71)" id="img-32f36571-24">
      <g class="primitive">
        <text text-anchor="end" dy="0.35em">0.0</text>
      </g>
    </g>
    <g transform="translate(10.02,54.81)" id="img-32f36571-25">
      <g class="primitive">
        <text text-anchor="end" dy="0.35em">0.1</text>
      </g>
    </g>
    <g transform="translate(10.02,30.9)" id="img-32f36571-26">
      <g class="primitive">
        <text text-anchor="end" dy="0.35em">0.2</text>
      </g>
    </g>
    <g transform="translate(10.02,7)" id="img-32f36571-27">
      <g class="primitive">
        <text text-anchor="end" dy="0.35em">0.3</text>
      </g>
    </g>
  </g>
</g>
<defs>
  <clipPath id="img-32f36571-4">
    <path d="M11.02,5 L 136.42 5 136.42 80.72 11.02 80.72" />
  </clipPath>
</defs>
</svg>
