<?xml version="1.0" encoding="UTF-8"?>
<svg xmlns="http://www.w3.org/2000/svg"
     xmlns:xlink="http://www.w3.org/1999/xlink"
     xmlns:gadfly="http://www.gadflyjl.org/ns"
     version="1.2"
     width="141.42mm" height="100mm" viewBox="0 0 141.42 100"
     stroke="none"
     fill="#000000"
     stroke-width="0.3"
     font-size="3.88"
>
<defs>
  <marker id="arrow" markerWidth="15" markerHeight="7" refX="5" refY="3.5" orient="auto" markerUnits="strokeWidth">
    <path d="M0,0 L15,3.5 L0,7 z" stroke="context-stroke" fill="context-stroke"/>
  </marker>
</defs>
<g class="plotroot xscalable yscalable" id="img-edb5c9e9-1">
  <g font-size="3.88" font-family="'PT Sans','Helvetica Neue','Helvetica',sans-serif" fill="#564A55" stroke="#000000" stroke-opacity="0.000" id="img-edb5c9e9-2">
    <g transform="translate(73.72,88.39)">
      <g class="primitive">
        <text text-anchor="middle" dy="0.6em">Parametric bootstrap estimates of residual σ</text>
      </g>
    </g>
  </g>
  <g class="guide xlabels" font-size="2.82" font-family="'PT Sans Caption','Helvetica Neue','Helvetica',sans-serif" fill="#6C606B" id="img-edb5c9e9-3">
    <g transform="translate(13.02,81.72)">
      <g class="primitive">
        <text text-anchor="middle" dy="0.6em">15</text>
      </g>
    </g>
    <g transform="translate(43.37,81.72)">
      <g class="primitive">
        <text text-anchor="middle" dy="0.6em">20</text>
      </g>
    </g>
    <g transform="translate(73.72,81.72)">
      <g class="primitive">
        <text text-anchor="middle" dy="0.6em">25</text>
      </g>
    </g>
    <g transform="translate(104.07,81.72)">
      <g class="primitive">
        <text text-anchor="middle" dy="0.6em">30</text>
      </g>
    </g>
    <g transform="translate(134.42,81.72)">
      <g class="primitive">
        <text text-anchor="middle" dy="0.6em">35</text>
      </g>
    </g>
  </g>
  <g clip-path="url(#img-edb5c9e9-4)">
    <g id="img-edb5c9e9-5">
      <g pointer-events="visible" stroke-width="0.3" fill="#000000" fill-opacity="0.000" stroke="#000000" stroke-opacity="0.000" class="guide background" id="img-edb5c9e9-6">
        <g transform="translate(73.72,42.86)" id="img-edb5c9e9-7">
          <path d="M-62.7,-37.86 L 62.7 -37.86 62.7 37.86 -62.7 37.86 z" class="primitive"/>
        </g>
      </g>
      <g class="guide ygridlines xfixed" stroke-dasharray="0.5,0.5" stroke-width="0.2" stroke="#D0D0E0" id="img-edb5c9e9-8">
        <g transform="translate(73.72,78.71)" id="img-edb5c9e9-9">
          <path fill="none" d="M-62.7,0 L 62.7 0" class="primitive"/>
        </g>
        <g transform="translate(73.72,54.81)" id="img-edb5c9e9-10">
          <path fill="none" d="M-62.7,0 L 62.7 0" class="primitive"/>
        </g>
        <g transform="translate(73.72,30.9)" id="img-edb5c9e9-11">
          <path fill="none" d="M-62.7,0 L 62.7 0" class="primitive"/>
        </g>
        <g transform="translate(73.72,7)" id="img-edb5c9e9-12">
          <path fill="none" d="M-62.7,0 L 62.7 0" class="primitive"/>
        </g>
      </g>
      <g class="guide xgridlines yfixed" stroke-dasharray="0.5,0.5" stroke-width="0.2" stroke="#D0D0E0" id="img-edb5c9e9-13">
        <g transform="translate(13.02,42.86)" id="img-edb5c9e9-14">
          <path fill="none" d="M0,-37.86 L 0 37.86" class="primitive"/>
        </g>
        <g transform="translate(43.37,42.86)" id="img-edb5c9e9-15">
          <path fill="none" d="M0,-37.86 L 0 37.86" class="primitive"/>
        </g>
        <g transform="translate(73.72,42.86)" id="img-edb5c9e9-16">
          <path fill="none" d="M0,-37.86 L 0 37.86" class="primitive"/>
        </g>
        <g transform="translate(104.07,42.86)" id="img-edb5c9e9-17">
          <path fill="none" d="M0,-37.86 L 0 37.86" class="primitive"/>
        </g>
        <g transform="translate(134.42,42.86)" id="img-edb5c9e9-18">
          <path fill="none" d="M0,-37.86 L 0 37.86" class="primitive"/>
        </g>
      </g>
      <g class="plotpanel" id="img-edb5c9e9-19">
        <metadata>
          <boundingbox value="11.019999999999996mm 5.0mm 125.40135623730951mm 75.715mm"/>
          <unitbox value="14.670514389297184 0.30836645053336126 20.65897122140563 -0.3167329010667225"/>
        </metadata>
        <g stroke-width="0.3" fill="#000000" fill-opacity="0.000" class="geometry" id="img-edb5c9e9-20">
          <g class="color_LCHab{Float32}(70.0f0,60.0f0,240.0f0)" stroke-dasharray="none" stroke="#00BFFF" id="img-edb5c9e9-21">
            <g transform="translate(74.29,62.26)" id="img-edb5c9e9-22">
              <path fill="none" d="M-43.91,16.46 L -43.56 16.46 -43.22 16.46 -42.87 16.46 -42.53 16.46 -42.18 16.46 -41.84 16.46 -41.5 16.46 -41.15 16.45 -40.81 16.45 -40.46 16.44 -40.12 16.44 -39.77 16.43 -39.43 16.42 -39.09 16.42 -38.74 16.42 -38.4 16.42 -38.05 16.42 -37.71 16.43 -37.36 16.43 -37.02 16.44 -36.67 16.45 -36.33 16.45 -35.99 16.45 -35.64 16.46 -35.3 16.46 -34.95 16.46 -34.61 16.46 -34.26 16.46 -33.92 16.46 -33.58 16.46 -33.23 16.45 -32.89 16.45 -32.54 16.44 -32.2 16.43 -31.85 16.42 -31.51 16.41 -31.16 16.39 -30.82 16.37 -30.48 16.36 -30.13 16.34 -29.79 16.33 -29.44 16.32 -29.1 16.31 -28.75 16.3 -28.41 16.29 -28.07 16.27 -27.72 16.25 -27.38 16.22 -27.03 16.19 -26.69 16.14 -26.34 16.09 -26 16.04 -25.66 15.99 -25.31 15.93 -24.97 15.86 -24.62 15.79 -24.28 15.7 -23.93 15.59 -23.59 15.46 -23.24 15.32 -22.9 15.15 -22.56 14.96 -22.21 14.75 -21.87 14.53 -21.52 14.29 -21.18 14.05 -20.83 13.81 -20.49 13.58 -20.15 13.37 -19.8 13.19 -19.46 13.01 -19.11 12.85 -18.77 12.67 -18.42 12.48 -18.08 12.23 -17.73 11.93 -17.39 11.54 -17.05 11.06 -16.7 10.48 -16.36 9.8 -16.01 9.05 -15.67 8.25 -15.32 7.4 -14.98 6.54 -14.64 5.68 -14.29 4.82 -13.95 3.95 -13.6 3.08 -13.26 2.2 -12.91 1.3 -12.57 0.39 -12.22 -0.54 -11.88 -1.47 -11.54 -2.41 -11.19 -3.36 -10.85 -4.31 -10.5 -5.29 -10.16 -6.32 -9.81 -7.41 -9.47 -8.58 -9.13 -9.84 -8.78 -11.22 -8.44 -12.71 -8.09 -14.3 -7.75 -16.01 -7.4 -17.8 -7.06 -19.65 -6.72 -21.53 -6.37 -23.38 -6.03 -25.16 -5.68 -26.82 -5.34 -28.34 -4.99 -29.71 -4.65 -30.94 -4.3 -32.05 -3.96 -33.09 -3.62 -34.09 -3.27 -35.1 -2.93 -36.16 -2.58 -37.3 -2.24 -38.52 -1.89 -39.8 -1.55 -41.1 -1.21 -42.33 -0.86 -43.44 -0.52 -44.35 -0.17 -45.06 0.17 -45.58 0.52 -45.96 0.86 -46.27 1.21 -46.55 1.55 -46.81 1.89 -47.04 2.24 -47.2 2.58 -47.23 2.93 -47.08 3.27 -46.73 3.62 -46.19 3.96 -45.49 4.3 -44.66 4.65 -43.77 4.99 -42.86 5.34 -41.96 5.68 -41.08 6.03 -40.23 6.37 -39.4 6.72 -38.57 7.06 -37.73 7.4 -36.85 7.75 -35.91 8.09 -34.88 8.44 -33.76 8.78 -32.56 9.13 -31.27 9.47 -29.94 9.81 -28.61 10.16 -27.29 10.5 -26 10.85 -24.75 11.19 -23.53 11.54 -22.32 11.88 -21.12 12.22 -19.93 12.57 -18.76 12.91 -17.61 13.26 -16.5 13.6 -15.42 13.95 -14.38 14.29 -13.34 14.64 -12.28 14.98 -11.19 15.32 -10.03 15.67 -8.81 16.01 -7.5 16.36 -6.13 16.7 -4.72 17.05 -3.29 17.39 -1.88 17.73 -0.54 18.08 0.7 18.42 1.82 18.77 2.81 19.11 3.67 19.46 4.43 19.8 5.12 20.15 5.76 20.49 6.38 20.83 6.99 21.18 7.61 21.52 8.23 21.87 8.84 22.21 9.46 22.56 10.05 22.9 10.63 23.24 11.16 23.59 11.65 23.93 12.09 24.28 12.49 24.62 12.84 24.97 13.15 25.31 13.45 25.66 13.73 26 14 26.34 14.27 26.69 14.53 27.03 14.77 27.38 15 27.72 15.2 28.07 15.37 28.41 15.51 28.75 15.63 29.1 15.72 29.44 15.79 29.79 15.83 30.13 15.87 30.48 15.89 30.82 15.9 31.16 15.92 31.51 15.93 31.85 15.95 32.2 15.99 32.54 16.03 32.89 16.08 33.23 16.14 33.58 16.2 33.92 16.24 34.26 16.28 34.61 16.3 34.95 16.31 35.3 16.32 35.64 16.32 35.99 16.33 36.33 16.33 36.67 16.34 37.02 16.35 37.36 16.36 37.71 16.37 38.05 16.38 38.4 16.39 38.74 16.4 39.09 16.41 39.43 16.42 39.77 16.42 40.12 16.43 40.46 16.44 40.81 16.45 41.15 16.45 41.5 16.46 41.84 16.46 42.18 16.46 42.53 16.46 42.87 16.46 43.22 16.46 43.56 16.46 43.91 16.46" class="primitive"/>
            </g>
          </g>
        </g>
      </g>
    </g>
  </g>
  <g class="guide ylabels" font-size="2.82" font-family="'PT Sans Caption','Helvetica Neue','Helvetica',sans-serif" fill="#6C606B" id="img-edb5c9e9-23">
    <g transform="translate(10.02,78.71)" id="img-edb5c9e9-24">
      <g class="primitive">
        <text text-anchor="end" dy="0.35em">0.0</text>
      </g>
    </g>
    <g transform="translate(10.02,54.81)" id="img-edb5c9e9-25">
      <g class="primitive">
        <text text-anchor="end" dy="0.35em">0.1</text>
      </g>
    </g>
    <g transform="translate(10.02,30.9)" id="img-edb5c9e9-26">
      <g class="primitive">
        <text text-anchor="end" dy="0.35em">0.2</text>
      </g>
    </g>
    <g transform="translate(10.02,7)" id="img-edb5c9e9-27">
      <g class="primitive">
        <text text-anchor="end" dy="0.35em">0.3</text>
      </g>
    </g>
  </g>
</g>
<defs>
  <clipPath id="img-edb5c9e9-4">
    <path d="M11.02,5 L 136.42 5 136.42 80.72 11.02 80.72" />
  </clipPath>
</defs>
</svg>
