<?xml version="1.0" encoding="UTF-8"?>
<svg xmlns="http://www.w3.org/2000/svg"
     xmlns:xlink="http://www.w3.org/1999/xlink"
     xmlns:gadfly="http://www.gadflyjl.org/ns"
     version="1.2"
     width="141.42mm" height="100mm" viewBox="0 0 141.42 100"
     stroke="none"
     fill="#000000"
     stroke-width="0.3"
     font-size="3.88"
>
<defs>
  <marker id="arrow" markerWidth="15" markerHeight="7" refX="5" refY="3.5" orient="auto" markerUnits="strokeWidth">
    <path d="M0,0 L15,3.5 L0,7 z" stroke="context-stroke" fill="context-stroke"/>
  </marker>
</defs>
<g class="plotroot xscalable yscalable" id="img-50b425bc-1">
  <g font-size="3.88" font-family="'PT Sans','Helvetica Neue','Helvetica',sans-serif" fill="#564A55" stroke="#000000" stroke-opacity="0.000" id="img-50b425bc-2">
    <g transform="translate(74.56,88.39)">
      <g class="primitive">
        <text text-anchor="middle" dy="0.6em">Parametric bootstrap estimates of subject-related σ₁</text>
      </g>
    </g>
  </g>
  <g class="guide xlabels" font-size="2.82" font-family="'PT Sans Caption','Helvetica Neue','Helvetica',sans-serif" fill="#6C606B" id="img-50b425bc-3">
    <g transform="translate(14.69,81.72)">
      <g class="primitive">
        <text text-anchor="middle" dy="0.6em">-10</text>
      </g>
    </g>
    <g transform="translate(34.65,81.72)">
      <g class="primitive">
        <text text-anchor="middle" dy="0.6em">0</text>
      </g>
    </g>
    <g transform="translate(54.6,81.72)">
      <g class="primitive">
        <text text-anchor="middle" dy="0.6em">10</text>
      </g>
    </g>
    <g transform="translate(74.56,81.72)">
      <g class="primitive">
        <text text-anchor="middle" dy="0.6em">20</text>
      </g>
    </g>
    <g transform="translate(94.51,81.72)">
      <g class="primitive">
        <text text-anchor="middle" dy="0.6em">30</text>
      </g>
    </g>
    <g transform="translate(114.47,81.72)">
      <g class="primitive">
        <text text-anchor="middle" dy="0.6em">40</text>
      </g>
    </g>
    <g transform="translate(134.42,81.72)">
      <g class="primitive">
        <text text-anchor="middle" dy="0.6em">50</text>
      </g>
    </g>
  </g>
  <g clip-path="url(#img-50b425bc-4)">
    <g id="img-50b425bc-5">
      <g pointer-events="visible" stroke-width="0.3" fill="#000000" fill-opacity="0.000" stroke="#000000" stroke-opacity="0.000" class="guide background" id="img-50b425bc-6">
        <g transform="translate(74.56,42.86)" id="img-50b425bc-7">
          <path d="M-61.86,-37.86 L 61.86 -37.86 61.86 37.86 -61.86 37.86 z" class="primitive"/>
        </g>
      </g>
      <g class="guide ygridlines xfixed" stroke-dasharray="0.5,0.5" stroke-width="0.2" stroke="#D0D0E0" id="img-50b425bc-8">
        <g transform="translate(74.56,78.72)" id="img-50b425bc-9">
          <path fill="none" d="M-61.86,0 L 61.86 0" class="primitive"/>
        </g>
        <g transform="translate(74.56,60.79)" id="img-50b425bc-10">
          <path fill="none" d="M-61.86,0 L 61.86 0" class="primitive"/>
        </g>
        <g transform="translate(74.56,42.86)" id="img-50b425bc-11">
          <path fill="none" d="M-61.86,0 L 61.86 0" class="primitive"/>
        </g>
        <g transform="translate(74.56,24.93)" id="img-50b425bc-12">
          <path fill="none" d="M-61.86,0 L 61.86 0" class="primitive"/>
        </g>
        <g transform="translate(74.56,7)" id="img-50b425bc-13">
          <path fill="none" d="M-61.86,0 L 61.86 0" class="primitive"/>
        </g>
      </g>
      <g class="guide xgridlines yfixed" stroke-dasharray="0.5,0.5" stroke-width="0.2" stroke="#D0D0E0" id="img-50b425bc-14">
        <g transform="translate(14.69,42.86)" id="img-50b425bc-15">
          <path fill="none" d="M0,-37.86 L 0 37.86" class="primitive"/>
        </g>
        <g transform="translate(34.65,42.86)" id="img-50b425bc-16">
          <path fill="none" d="M0,-37.86 L 0 37.86" class="primitive"/>
        </g>
        <g transform="translate(54.6,42.86)" id="img-50b425bc-17">
          <path fill="none" d="M0,-37.86 L 0 37.86" class="primitive"/>
        </g>
        <g transform="translate(74.56,42.86)" id="img-50b425bc-18">
          <path fill="none" d="M0,-37.86 L 0 37.86" class="primitive"/>
        </g>
        <g transform="translate(94.51,42.86)" id="img-50b425bc-19">
          <path fill="none" d="M0,-37.86 L 0 37.86" class="primitive"/>
        </g>
        <g transform="translate(114.47,42.86)" id="img-50b425bc-20">
          <path fill="none" d="M0,-37.86 L 0 37.86" class="primitive"/>
        </g>
        <g transform="translate(134.42,42.86)" id="img-50b425bc-21">
          <path fill="none" d="M0,-37.86 L 0 37.86" class="primitive"/>
        </g>
      </g>
      <g class="plotpanel" id="img-50b425bc-22">
        <metadata>
          <boundingbox value="12.693333333333328mm 5.0mm 123.72802290397618mm 75.715mm"/>
          <unitbox value="-11.002271624381887 0.08223105347556299 62.00454324876378 -0.08446210695112599"/>
        </metadata>
        <g stroke-width="0.3" fill="#000000" fill-opacity="0.000" class="geometry" id="img-50b425bc-23">
          <g class="color_LCHab{Float32}(70.0f0,60.0f0,240.0f0)" stroke-dasharray="none" stroke="#00BFFF" id="img-50b425bc-24">
            <g transform="translate(78.69,61.1)" id="img-50b425bc-25">
              <path fill="none" d="M-50.57,17.62 L -50.17 17.62 -49.77 17.62 -49.38 17.62 -48.98 17.62 -48.58 17.61 -48.19 17.61 -47.79 17.61 -47.39 17.6 -47 17.58 -46.6 17.56 -46.2 17.54 -45.81 17.51 -45.41 17.47 -45.01 17.44 -44.62 17.41 -44.22 17.38 -43.82 17.37 -43.43 17.36 -43.03 17.35 -42.63 17.35 -42.24 17.35 -41.84 17.34 -41.44 17.32 -41.05 17.29 -40.65 17.26 -40.25 17.21 -39.86 17.17 -39.46 17.14 -39.06 17.11 -38.67 17.09 -38.27 17.09 -37.88 17.11 -37.48 17.13 -37.08 17.17 -36.69 17.21 -36.29 17.24 -35.89 17.25 -35.5 17.24 -35.1 17.2 -34.7 17.13 -34.31 17.03 -33.91 16.89 -33.51 16.73 -33.12 16.54 -32.72 16.34 -32.32 16.12 -31.93 15.89 -31.53 15.65 -31.13 15.41 -30.74 15.15 -30.34 14.89 -29.94 14.64 -29.55 14.41 -29.15 14.19 -28.75 13.99 -28.36 13.82 -27.96 13.66 -27.56 13.49 -27.17 13.29 -26.77 13.05 -26.37 12.73 -25.98 12.35 -25.58 11.89 -25.18 11.38 -24.79 10.85 -24.39 10.31 -23.99 9.79 -23.6 9.29 -23.2 8.81 -22.8 8.35 -22.41 7.88 -22.01 7.39 -21.61 6.87 -21.22 6.31 -20.82 5.72 -20.42 5.1 -20.03 4.45 -19.63 3.77 -19.24 3.06 -18.84 2.32 -18.44 1.53 -18.05 0.67 -17.65 -0.28 -17.25 -1.32 -16.86 -2.45 -16.46 -3.68 -16.06 -4.97 -15.67 -6.27 -15.27 -7.56 -14.87 -8.79 -14.48 -9.94 -14.08 -10.99 -13.68 -11.97 -13.29 -12.89 -12.89 -13.78 -12.49 -14.67 -12.1 -15.58 -11.7 -16.53 -11.3 -17.52 -10.91 -18.57 -10.51 -19.68 -10.11 -20.85 -9.72 -22.07 -9.32 -23.36 -8.92 -24.69 -8.53 -26.05 -8.13 -27.43 -7.73 -28.81 -7.34 -30.16 -6.94 -31.47 -6.54 -32.75 -6.15 -33.98 -5.75 -35.17 -5.35 -36.35 -4.96 -37.49 -4.56 -38.61 -4.16 -39.67 -3.77 -40.66 -3.37 -41.55 -2.97 -42.3 -2.58 -42.91 -2.18 -43.39 -1.78 -43.75 -1.39 -44.04 -0.99 -44.29 -0.59 -44.54 -0.2 -44.8 0.2 -45.07 0.59 -45.34 0.99 -45.58 1.39 -45.74 1.78 -45.78 2.18 -45.66 2.58 -45.37 2.97 -44.88 3.37 -44.2 3.77 -43.34 4.16 -42.32 4.56 -41.18 4.96 -39.94 5.35 -38.64 5.75 -37.31 6.15 -36 6.54 -34.72 6.94 -33.51 7.34 -32.37 7.73 -31.32 8.13 -30.33 8.53 -29.38 8.92 -28.46 9.32 -27.55 9.72 -26.61 10.11 -25.66 10.51 -24.68 10.91 -23.69 11.3 -22.68 11.7 -21.65 12.1 -20.59 12.49 -19.47 12.89 -18.28 13.29 -16.98 13.68 -15.57 14.08 -14.07 14.48 -12.51 14.87 -10.93 15.27 -9.37 15.67 -7.9 16.06 -6.53 16.46 -5.29 16.86 -4.15 17.25 -3.1 17.65 -2.1 18.05 -1.13 18.44 -0.15 18.84 0.82 19.24 1.8 19.63 2.76 20.03 3.71 20.42 4.62 20.82 5.48 21.22 6.29 21.61 7.04 22.01 7.73 22.41 8.36 22.8 8.94 23.2 9.48 23.6 9.99 23.99 10.48 24.39 10.95 24.79 11.42 25.18 11.88 25.58 12.33 25.98 12.76 26.37 13.18 26.77 13.57 27.17 13.93 27.56 14.26 27.96 14.56 28.36 14.83 28.75 15.08 29.15 15.31 29.55 15.52 29.94 15.73 30.34 15.92 30.74 16.11 31.13 16.29 31.53 16.46 31.93 16.59 32.32 16.71 32.72 16.79 33.12 16.85 33.51 16.9 33.91 16.93 34.31 16.96 34.7 16.99 35.1 17.03 35.5 17.07 35.89 17.12 36.29 17.17 36.69 17.21 37.08 17.26 37.48 17.31 37.88 17.35 38.27 17.39 38.67 17.43 39.06 17.46 39.46 17.49 39.86 17.52 40.25 17.54 40.65 17.55 41.05 17.55 41.44 17.55 41.84 17.55 42.24 17.55 42.63 17.54 43.03 17.54 43.43 17.54 43.82 17.54 44.22 17.55 44.62 17.56 45.01 17.57 45.41 17.58 45.81 17.59 46.2 17.6 46.6 17.6 47 17.61 47.39 17.61 47.79 17.62 48.19 17.62 48.58 17.62 48.98 17.62 49.38 17.62 49.77 17.62 50.17 17.62 50.57 17.62" class="primitive"/>
            </g>
          </g>
        </g>
      </g>
    </g>
  </g>
  <g class="guide ylabels" font-size="2.82" font-family="'PT Sans Caption','Helvetica Neue','Helvetica',sans-serif" fill="#6C606B" id="img-50b425bc-26">
    <g transform="translate(11.69,78.72)" id="img-50b425bc-27">
      <g class="primitive">
        <text text-anchor="end" dy="0.35em">0.00</text>
      </g>
    </g>
    <g transform="translate(11.69,60.79)" id="img-50b425bc-28">
      <g class="primitive">
        <text text-anchor="end" dy="0.35em">0.02</text>
      </g>
    </g>
    <g transform="translate(11.69,42.86)" id="img-50b425bc-29">
      <g class="primitive">
        <text text-anchor="end" dy="0.35em">0.04</text>
      </g>
    </g>
    <g transform="translate(11.69,24.93)" id="img-50b425bc-30">
      <g class="primitive">
        <text text-anchor="end" dy="0.35em">0.06</text>
      </g>
    </g>
    <g transform="translate(11.69,7)" id="img-50b425bc-31">
      <g class="primitive">
        <text text-anchor="end" dy="0.35em">0.08</text>
      </g>
    </g>
  </g>
</g>
<defs>
  <clipPath id="img-50b425bc-4">
    <path d="M12.69,5 L 136.42 5 136.42 80.72 12.69 80.72" />
  </clipPath>
</defs>
</svg>
